<svg version="1.0" xmlns="http://www.w3.org/2000/svg" viewBox="0 0 700 700"><path d="M60.9 106.4c-10.2 2.7-18.1 9.5-22.8 19.6l-2.6 5.5v297l3.3 6.7c3.7 7.7 9 12.8 17.2 16.7l5.5 2.6h577l5.6-2.6c7.9-3.7 13.3-9 17.1-16.7l3.3-6.7V281c0-81.1-.3-148.7-.7-150.2-2.2-8.8-9.6-17.5-19-22.5l-5.3-2.8-287-.2c-225.5-.1-288 .1-291.6 1.1zM368 176.6c12 2.3 17.8 4.2 28.6 9.5 21.7 10.7 41.2 31 49 51 .9 2.4 2 4.8 2.4 5.4 1.3 1.9 4 12 5.5 20 .9 5.1 1.3 12.3 1 20-.4 12.3-.6 14.4-2 20.5-.5 1.9-.9 3.7-1 4-.7 3.6-5.7 16.1-8.7 21.8-15 28.6-42.3 48.5-74.8 54.6-7.5 1.4-29.2 1.5-35.5.2-9.8-2-13.8-3.2-21-6.2C295.7 371 286.8 365 275 353c-15.3-15.5-24.6-33.7-28.6-56-1.3-7.1-1.3-29.6-.1-34.5.3-1.1 1-4.3 1.7-7 7.7-34.6 36-64.8 70.7-75.6 15-4.7 35-6 49.3-3.3zm-212.6 72.3c11.9 5.8 18.9 16.7 19.2 30.1.4 14.1-6.7 26-19.4 32.2-6 3-7.5 3.3-15.2 3.3-7 0-9.5-.5-14.1-2.7-7.9-3.6-13.3-8.9-17.1-16.5-2.7-5.5-3.2-7.6-3.2-14.1-.1-8.5.5-11.3 3.6-17.9 1.8-3.7 6.4-8.8 10.8-11.8 10.7-7.4 23.7-8.4 35.4-2.6zm419.8-.1c7.7 3.8 13 9.2 16.7 17.1 2.2 4.7 2.6 7 2.6 14.1 0 7.6-.4 9.3-3.3 15.2-3.7 7.6-9.2 12.9-17.2 16.7-4.6 2.2-6.9 2.6-14 2.6s-9.4-.4-14-2.6c-8.1-3.9-13.5-9-17.2-16.6-11.7-23.7 5.8-50.8 32.3-50 6.2.2 8.7.8 14.1 3.5zM52.8 509.2c-4.9 1.7-9.7 5.1-12.8 9.1-2.5 3.1-5 11.1-5 15.6 0 11.3 9.1 22.8 20 25.2 1.9.4 18.1 1.1 36 1.4 36.1.7 48.5 1.1 61 2 4.7.3 12.6.8 17.6 1 5 .3 11.3.7 14 .9 2.7.3 8.5.7 12.9 1.1 8.9.6 18.2 1.4 23.5 2 1.9.2 6.2.7 9.5 1 11 1.1 16 1.6 18.5 2 1.4.2 5.7.6 9.5 1 3.9.4 7.7.8 8.5 1 .8.2 4.4.6 8 1 3.6.4 7.4.9 8.5 1.1 1.1.2 3.8.6 6 .9 2.2.2 5.4.6 7 .9 1.7.2 6.6 1 11 1.6 8.3 1.2 11.6 1.7 16.3 2.5 5.2.8 22.7 3.7 24.7 4 6.3 1 10.5 1.8 14.3 2.6 2.3.5 5.9 1.2 8 1.5 2 .3 13.4 2.6 25.2 5 11.8 2.5 22.6 4.7 24 5 15.1 3 50.7 11.8 77.5 19.1 22.8 6.2 34.8 6.5 49.1 1.2 20.4-7.6 35.6-25.5 39.6-46.8 1.4-7.7 1.4-40.6-.1-45.8-2.9-10.6-13.8-18.6-25.2-18.5-11.4.1-22.2 8-25 18.4-.6 2.3-1.1 11-1.1 19.2 0 16.3-.8 20.8-4.1 23.1-2.5 1.8-8.4 2-12.4.4-4.5-1.7-65-16.8-82.3-20.5-3.6-.8-7.4-1.6-8.5-1.9-9.3-2-52.6-10.7-55-11-1.6-.3-4.1-.7-5.5-1-3.2-.6-30.3-5.2-35.5-6-2.2-.3-5.1-.8-6.5-1-1.4-.2-7.4-1.1-13.5-2-6-.9-12.1-1.8-13.5-2-2.6-.4-32.5-4.1-41.5-5.1-2.7-.3-6.1-.7-7.5-.9-1.4-.2-5.6-.6-9.5-1-3.8-.3-8.6-.8-10.5-1-1.9-.2-6.4-.7-10-1-3.6-.3-9-.8-12-1-7.2-.6-19-1.5-26.5-2-3.3-.2-10.7-.7-16.5-1-21.4-1.4-60.1-2.6-87.4-2.9-14.7-.1-18.8.1-22.8 1.6z"/></svg>
