<?xml version="1.0" standalone="no"?>
<!DOCTYPE svg PUBLIC "-//W3C//DTD SVG 20010904//EN"
 "http://www.w3.org/TR/2001/REC-SVG-20010904/DTD/svg10.dtd">
<svg version="1.0" xmlns="http://www.w3.org/2000/svg"
 width="700.000000pt" height="700.000000pt" viewBox="0 0 700.000000 700.000000"
 preserveAspectRatio="xMidYMid meet">
<metadata>
Created by potrace 1.14, written by Peter Selinger 2001-2017
</metadata>
<g transform="translate(0.000000,700.000000) scale(0.100000,-0.100000)"
fill="#000000" stroke="none">
<path d="M609 5936 c-102 -27 -181 -95 -228 -196 l-26 -55 0 -1485 0 -1485 33
-67 c37 -77 90 -128 172 -167 l55 -26 2885 0 2885 0 56 26 c79 37 133 90 171
167 l33 67 0 1475 c0 811 -3 1487 -7 1502 -22 88 -96 175 -190 225 l-53 28
-2870 2 c-2255 1 -2880 -1 -2916 -11z m3071 -702 c120 -23 178 -42 286 -95
217 -107 412 -310 490 -510 9 -24 20 -48 24 -54 13 -19 40 -120 55 -200 9 -51
13 -123 10 -200 -4 -123 -6 -144 -20 -205 -5 -19 -9 -37 -10 -40 -7 -36 -57
-161 -87 -218 -150 -286 -423 -485 -748 -546 -75 -14 -292 -15 -355 -2 -98 20
-138 32 -210 62 -158 64 -247 124 -365 244 -153 155 -246 337 -286 560 -13 71
-13 296 -1 345 3 11 10 43 17 70 77 346 360 648 707 756 150 47 350 60 493 33z
m-2126 -723 c119 -58 189 -167 192 -301 4 -141 -67 -260 -194 -322 -60 -30
-75 -33 -152 -33 -70 0 -95 5 -141 27 -79 36 -133 89 -171 165 -27 55 -32 76
-32 141 -1 85 5 113 36 179 18 37 64 88 108 118 107 74 237 84 354 26z m4198
1 c77 -38 130 -92 167 -171 22 -47 26 -70 26 -141 0 -76 -4 -93 -33 -152 -37
-76 -92 -129 -172 -167 -46 -22 -69 -26 -140 -26 -71 0 -94 4 -140 26 -81 39
-135 90 -172 166 -117 237 58 508 323 500 62 -2 87 -8 141 -35z"/>
<path d="M528 1908 c-49 -17 -97 -51 -128 -91 -25 -31 -50 -111 -50 -156 0
-113 91 -228 200 -252 19 -4 181 -11 360 -14 361 -7 485 -11 610 -20 47 -3
126 -8 176 -10 50 -3 113 -7 140 -9 27 -3 85 -7 129 -11 89 -6 182 -14 235
-20 19 -2 62 -7 95 -10 110 -11 160 -16 185 -20 14 -2 57 -6 95 -10 39 -4 77
-8 85 -10 8 -2 44 -6 80 -10 36 -4 74 -9 85 -11 11 -2 38 -6 60 -9 22 -2 54
-6 70 -9 17 -2 66 -10 110 -16 83 -12 116 -17 163 -25 52 -8 227 -37 247 -40
63 -10 105 -18 143 -26 23 -5 59 -12 80 -15 20 -3 134 -26 252 -50 118 -25
226 -47 240 -50 151 -30 507 -118 775 -191 228 -62 348 -65 491 -12 204 76
356 255 396 468 14 77 14 406 -1 458 -29 106 -138 186 -252 185 -114 -1 -222
-80 -250 -184 -6 -23 -11 -110 -11 -192 0 -163 -8 -208 -41 -231 -25 -18 -84
-20 -124 -4 -45 17 -650 168 -823 205 -36 8 -74 16 -85 19 -93 20 -526 107
-550 110 -16 3 -41 7 -55 10 -32 6 -303 52 -355 60 -22 3 -51 8 -65 10 -14 2
-74 11 -135 20 -60 9 -121 18 -135 20 -26 4 -325 41 -415 51 -27 3 -61 7 -75
9 -14 2 -56 6 -95 10 -38 3 -86 8 -105 10 -19 2 -64 7 -100 10 -36 3 -90 8
-120 10 -72 6 -190 15 -265 20 -33 2 -107 7 -165 10 -214 14 -601 26 -874 29
-147 1 -188 -1 -228 -16z"/>
</g>
</svg>
